<svg xmlns="http://www.w3.org/2000/svg" viewBox="0 0 1024 1024">
<defs>
<radialGradient id="bgGrad" cx="0.5" cy="0.35" r="0.9">
<stop offset="0%" stop-color="#3a2820"/>
<stop offset="60%" stop-color="#22150f"/>
<stop offset="100%" stop-color="#0d0705"/>
</radialGradient>
<linearGradient id="wood" x1="0" y1="0" x2="0" y2="1">
<stop offset="0%" stop-color="#6b3e22"/>
<stop offset="50%" stop-color="#52301a"/>
<stop offset="100%" stop-color="#3a2010"/>
</linearGradient>
<linearGradient id="plank1" x1="0" y1="0" x2="1" y2="0">
<stop offset="0%" stop-color="#5a3320" stop-opacity="0"/>
<stop offset="50%" stop-color="#2a1608" stop-opacity="0.6"/>
<stop offset="100%" stop-color="#5a3320" stop-opacity="0"/>
</linearGradient>
<radialGradient id="bowlOuter" cx="0.5" cy="0.5" r="0.5">
<stop offset="0%" stop-color="#1f1410"/>
<stop offset="70%" stop-color="#120a08"/>
<stop offset="100%" stop-color="#050302"/>
</radialGradient>
<radialGradient id="bowlRim" cx="0.5" cy="0.5" r="0.5">
<stop offset="85%" stop-color="#3a2418" stop-opacity="0"/>
<stop offset="92%" stop-color="#7a4a30"/>
<stop offset="96%" stop-color="#a86a40"/>
<stop offset="100%" stop-color="#3a2418"/>
</radialGradient>
<radialGradient id="broth" cx="0.45" cy="0.4" r="0.7">
<stop offset="0%" stop-color="#f4d088"/>
<stop offset="40%" stop-color="#e0a558"/>
<stop offset="75%" stop-color="#b27838"/>
<stop offset="100%" stop-color="#7a4a1f"/>
</radialGradient>
<radialGradient id="brothShine" cx="0.35" cy="0.3" r="0.4">
<stop offset="0%" stop-color="#fff4d0" stop-opacity="0.55"/>
<stop offset="60%" stop-color="#ffd58a" stop-opacity="0.1"/>
<stop offset="100%" stop-color="#ffd58a" stop-opacity="0"/>
</radialGradient>
<radialGradient id="oilDrop" cx="0.5" cy="0.5" r="0.5">
<stop offset="0%" stop-color="#fff2b8" stop-opacity="0.9"/>
<stop offset="60%" stop-color="#f7c870" stop-opacity="0.5"/>
<stop offset="100%" stop-color="#c08840" stop-opacity="0"/>
</radialGradient>
<radialGradient id="yolk" cx="0.4" cy="0.4" r="0.65">
<stop offset="0%" stop-color="#ffd76b"/>
<stop offset="55%" stop-color="#e89a2c"/>
<stop offset="100%" stop-color="#a25b10"/>
</radialGradient>
<radialGradient id="eggWhite" cx="0.4" cy="0.35" r="0.7">
<stop offset="0%" stop-color="#fffaf0"/>
<stop offset="70%" stop-color="#f3e2c4"/>
<stop offset="100%" stop-color="#c9a47a"/>
</radialGradient>
<radialGradient id="chashu" cx="0.5" cy="0.5" r="0.5">
<stop offset="0%" stop-color="#e6b585"/>
<stop offset="60%" stop-color="#c08458"/>
<stop offset="100%" stop-color="#7a4528"/>
</radialGradient>
<linearGradient id="chashuFat" x1="0" y1="0" x2="0" y2="1">
<stop offset="0%" stop-color="#fff0d8"/>
<stop offset="100%" stop-color="#e9c79a"/>
</linearGradient>
<linearGradient id="noriGrad" x1="0" y1="0" x2="1" y2="1">
<stop offset="0%" stop-color="#1a2410"/>
<stop offset="50%" stop-color="#0e1808"/>
<stop offset="100%" stop-color="#243018"/>
</linearGradient>
<linearGradient id="noodle" x1="0" y1="0" x2="0" y2="1">
<stop offset="0%" stop-color="#f7dc8a"/>
<stop offset="100%" stop-color="#caa050"/>
</linearGradient>
<linearGradient id="chopstick" x1="0" y1="0" x2="1" y2="0">
<stop offset="0%" stop-color="#3a1d0c"/>
<stop offset="50%" stop-color="#6b3a18"/>
<stop offset="100%" stop-color="#2a1408"/>
</linearGradient>
<radialGradient id="steam" cx="0.5" cy="0.5" r="0.5">
<stop offset="0%" stop-color="#ffffff" stop-opacity="0.55"/>
<stop offset="60%" stop-color="#ffffff" stop-opacity="0.15"/>
<stop offset="100%" stop-color="#ffffff" stop-opacity="0"/>
</radialGradient>
<radialGradient id="tableLight" cx="0.5" cy="0.55" r="0.6">
<stop offset="0%" stop-color="#9a6a3a" stop-opacity="0.45"/>
<stop offset="100%" stop-color="#9a6a3a" stop-opacity="0"/>
</radialGradient>
<filter id="soft" x="-20%" y="-20%" width="140%" height="140%">
<feGaussianBlur stdDeviation="2"/>
</filter>
<filter id="blurSteam" x="-50%" y="-50%" width="200%" height="200%">
<feGaussianBlur stdDeviation="14"/>
</filter>
<filter id="softShadow" x="-20%" y="-20%" width="140%" height="140%">
<feGaussianBlur stdDeviation="8"/>
</filter>
</defs>

<!-- Background ambience -->
<rect width="1024" height="1024" fill="url(#bgGrad)"/>

<!-- Wooden table -->
<rect x="0" y="380" width="1024" height="644" fill="url(#wood)"/>
<!-- Plank divisions -->
<rect x="0" y="380" width="1024" height="3" fill="#1a0a04" opacity="0.6"/>
<rect x="0" y="640" width="1024" height="2" fill="#1a0a04" opacity="0.5"/>
<rect x="0" y="860" width="1024" height="2" fill="#1a0a04" opacity="0.5"/>
<!-- Wood grain -->
<g opacity="0.35">
<path d="M 0 430 Q 300 425 600 432 T 1024 430" stroke="#2a1408" stroke-width="1.2" fill="none"/>
<path d="M 0 470 Q 400 478 700 472 T 1024 475" stroke="#2a1408" stroke-width="1" fill="none"/>
<path d="M 0 520 Q 250 514 550 522 T 1024 518" stroke="#2a1408" stroke-width="1.1" fill="none"/>
<path d="M 0 580 Q 350 588 650 582 T 1024 585" stroke="#2a1408" stroke-width="1" fill="none"/>
<path d="M 0 690 Q 280 694 580 688 T 1024 692" stroke="#2a1408" stroke-width="1.2" fill="none"/>
<path d="M 0 740 Q 420 736 720 742 T 1024 740" stroke="#2a1408" stroke-width="1" fill="none"/>
<path d="M 0 800 Q 320 804 620 800 T 1024 802" stroke="#2a1408" stroke-width="1.1" fill="none"/>
<path d="M 0 900 Q 380 894 680 902 T 1024 898" stroke="#2a1408" stroke-width="1" fill="none"/>
<path d="M 0 950 Q 280 956 580 950 T 1024 954" stroke="#2a1408" stroke-width="1.1" fill="none"/>
</g>
<!-- Table warm light pool -->
<ellipse cx="512" cy="620" rx="520" ry="220" fill="url(#tableLight)"/>

<!-- Distant props: small dish -->
<g transform="translate(880,470) rotate(8)" opacity="0.85">
<ellipse cx="0" cy="0" rx="80" ry="22" fill="#1a0e08"/>
<ellipse cx="0" cy="-3" rx="74" ry="18" fill="#2b1a10"/>
<ellipse cx="-10" cy="-6" rx="40" ry="10" fill="#5a2818"/>
<ellipse cx="-10" cy="-6" rx="30" ry="6" fill="#7a3820"/>
</g>

<!-- Chili oil bottle in background -->
<g transform="translate(140,420)" opacity="0.85">
<ellipse cx="0" cy="120" rx="38" ry="8" fill="#000" opacity="0.5" filter="url(#softShadow)"/>
<path d="M -22 -40 L -22 90 Q -22 110 0 110 Q 22 110 22 90 L 22 -40 Z" fill="#2a1008"/>
<path d="M -22 -40 L -22 90 Q -22 110 0 110 Q 22 110 22 90 L 22 -40 Z" fill="url(#wood)" opacity="0.3"/>
<rect x="-10" y="-55" width="20" height="20" fill="#1a0804"/>
<rect x="-18" y="-30" width="36" height="50" fill="#9a3018" opacity="0.7"/>
<ellipse cx="-8" cy="0" rx="6" ry="20" fill="#ff8050" opacity="0.4"/>
</g>

<!-- Napkin under bowl -->
<g transform="translate(512,640) rotate(-6)">
<rect x="-380" y="-30" width="760" height="320" fill="#d9c4a0" opacity="0.85" rx="4"/>
<rect x="-380" y="-30" width="760" height="320" fill="none" stroke="#a8895c" stroke-width="2" opacity="0.6" rx="4"/>
<line x1="-360" y1="-15" x2="360" y2="-15" stroke="#a8895c" stroke-width="1" opacity="0.4"/>
<line x1="-360" y1="275" x2="360" y2="275" stroke="#a8895c" stroke-width="1" opacity="0.4"/>
<!-- subtle texture -->
<g opacity="0.15">
<line x1="-380" y1="40" x2="380" y2="40" stroke="#7a5a30" stroke-width="0.5"/>
<line x1="-380" y1="80" x2="380" y2="80" stroke="#7a5a30" stroke-width="0.5"/>
<line x1="-380" y1="120" x2="380" y2="120" stroke="#7a5a30" stroke-width="0.5"/>
<line x1="-380" y1="160" x2="380" y2="160" stroke="#7a5a30" stroke-width="0.5"/>
<line x1="-380" y1="200" x2="380" y2="200" stroke="#7a5a30" stroke-width="0.5"/>
</g>
</g>

<!-- Bowl shadow on table -->
<ellipse cx="520" cy="780" rx="360" ry="60" fill="#000" opacity="0.55" filter="url(#softShadow)"/>

<!-- BOWL (three-quarter perspective ellipse) -->
<g transform="translate(512,640)">
<!-- bowl outer body (deeper than rim) -->
<path d="M -340 -10 Q -340 200 0 220 Q 340 200 340 -10 Q 340 60 0 80 Q -340 60 -340 -10 Z" fill="url(#bowlOuter)"/>
<!-- outer rim curve -->
<ellipse cx="0" cy="-10" rx="340" ry="90" fill="#1a0e08"/>
<ellipse cx="0" cy="-10" rx="340" ry="90" fill="url(#bowlRim)"/>
<!-- inner cavity edge -->
<ellipse cx="0" cy="-6" rx="316" ry="80" fill="#0a0604"/>

<!-- Decorative rim band -->
<g opacity="0.85">
<ellipse cx="0" cy="-32" rx="332" ry="86" fill="none" stroke="#8a3018" stroke-width="3"/>
<ellipse cx="0" cy="-32" rx="320" ry="80" fill="none" stroke="#5a1808" stroke-width="1.5"/>
<!-- wave pattern on rim -->
<g stroke="#c84028" stroke-width="2.5" fill="none" opacity="0.9">
<path d="M -300 -34 q 10 -8 20 0 t 20 0 t 20 0 t 20 0 t 20 0 t 20 0 t 20 0 t 20 0 t 20 0 t 20 0 t 20 0 t 20 0 t 20 0 t 20 0 t 20 0 t 20 0 t 20 0 t 20 0 t 20 0 t 20 0 t 20 0 t 20 0 t 20 0 t 20 0 t 20 0 t 20 0 t 20 0 t 20 0 t 20 0 t 20 0"/>
</g>
</g>

<!-- BROTH surface -->
<ellipse cx="0" cy="-6" rx="300" ry="74" fill="url(#broth)"/>
<ellipse cx="-40" cy="-30" rx="220" ry="50" fill="url(#brothShine)"/>

<!-- Oil droplets floating on broth -->
<g opacity="0.95">
<ellipse cx="-180" cy="-10" rx="14" ry="6" fill="url(#oilDrop)"/>
<ellipse cx="-140" cy="20" rx="20" ry="8" fill="url(#oilDrop)"/>
<ellipse cx="-90" cy="-30" rx="10" ry="4" fill="url(#oilDrop)"/>
<ellipse cx="60" cy="-40" rx="16" ry="6" fill="url(#oilDrop)"/>
<ellipse cx="130" cy="-10" rx="22" ry="9" fill="url(#oilDrop)"/>
<ellipse cx="200" cy="20" rx="14" ry="5" fill="url(#oilDrop)"/>
<ellipse cx="-220" cy="20" rx="8" ry="3" fill="url(#oilDrop)"/>
<ellipse cx="0" cy="35" rx="11" ry="4" fill="url(#oilDrop)"/>
<ellipse cx="-30" cy="-50" rx="7" ry="3" fill="url(#oilDrop)"/>
<ellipse cx="170" cy="-50" rx="6" ry="2.5" fill="url(#oilDrop)"/>
<ellipse cx="240" cy="-15" rx="9" ry="3.5" fill="url(#oilDrop)"/>
</g>

<!-- Subtle broth ripples -->
<g fill="none" stroke="#fff2c8" stroke-width="1" opacity="0.3">
<ellipse cx="-30" cy="-10" rx="180" ry="45"/>
<ellipse cx="-20" cy="-12" rx="240" ry="60"/>
</g>

<!-- NOODLE NEST (curly noodles partially submerged) -->
<g>
<!-- back layer -->
<g stroke="url(#noodle)" stroke-width="5" fill="none" stroke-linecap="round" opacity="0.95">
<path d="M -200 -30 q 20 -20 50 -10 t 60 -5 t 70 10 t 80 -15 t 60 5"/>
<path d="M -180 -45 q 30 -15 70 0 t 80 -10 t 80 5 t 50 -10"/>
<path d="M -220 -10 q 40 -25 90 -5 t 80 -15 t 90 10 t 80 0"/>
</g>
<!-- mid layer -->
<g stroke="#e8c060" stroke-width="5" fill="none" stroke-linecap="round">
<path d="M -210 0 Q -160 -20 -100 -5 T 30 -15 T 160 0 T 240 -10"/>
<path d="M -200 15 Q -120 -5 -60 10 T 80 -5 T 200 8 T 250 0"/>
<path d="M -180 -20 Q -120 -35 -40 -20 T 100 -30 T 220 -15"/>
<path d="M -160 25 Q -80 10 0 25 T 140 15 T 230 22"/>
<path d="M -190 -5 Q -100 -25 -20 -10 T 120 -20 T 240 -8"/>
</g>
<!-- highlights -->
<g stroke="#fff0b0" stroke-width="1.5" fill="none" stroke-linecap="round" opacity="0.8">
<path d="M -200 -3 Q -120 -22 -40 -12 T 100 -22"/>
<path d="M -160 12 Q -80 -3 -10 12 T 130 2"/>
<path d="M -180 -22 Q -100 -36 -20 -22 T 120 -32"/>
</g>
<!-- a couple of dangling noodles over the rim near chopsticks -->
<g stroke="#e8c060" stroke-width="4" fill="none" stroke-linecap="round">
<path d="M 100 -70 Q 140 -90 180 -100 Q 220 -110 250 -120"/>
<path d="M 110 -65 Q 150 -82 200 -88"/>
</g>
</g>

<!-- CHASHU slice 1 (left) -->
<g transform="translate(-150,10) rotate(-12)">
<ellipse cx="0" cy="3" rx="110" ry="62" fill="#000" opacity="0.35" filter="url(#soft)"/>
<ellipse cx="0" cy="0" rx="108" ry="60" fill="url(#chashu)"/>
<ellipse cx="0" cy="0" rx="108" ry="60" fill="none" stroke="#5a2a10" stroke-width="2.5"/>
<!-- Fat marbling band on edge -->
<path d="M -100 -28 Q -60 -42 0 -40 Q 60 -38 100 -22" stroke="url(#chashuFat)" stroke-width="9" fill="none" stroke-linecap="round" opacity="0.95"/>
<path d="M -90 30 Q -40 42 30 38 Q 70 36 95 28" stroke="url(#chashuFat)" stroke-width="6" fill="none" stroke-linecap="round" opacity="0.85"/>
<!-- Muscle striations -->
<g stroke="#8a4a28" stroke-width="1.5" fill="none" opacity="0.6">
<path d="M -90 -10 Q -30 -5 40 -8 T 95 -5"/>
<path d="M -90 5 Q -30 10 40 6 T 95 10"/>
<path d="M -90 18 Q -30 22 40 18 T 95 22"/>
</g>
<!-- Sear highlights -->
<ellipse cx="-30" cy="-18" rx="40" ry="6" fill="#f0c08a" opacity="0.5"/>
<ellipse cx="20" cy="15" rx="30" ry="4" fill="#f0c08a" opacity="0.4"/>
</g>

<!-- CHASHU slice 2 (back right) -->
<g transform="translate(80,-30) rotate(15)">
<ellipse cx="0" cy="3" rx="95" ry="52" fill="#000" opacity="0.3" filter="url(#soft)"/>
<ellipse cx="0" cy="0" rx="92" ry="50" fill="url(#chashu)"/>
<ellipse cx="0" cy="0" rx="92" ry="50" fill="none" stroke="#5a2a10" stroke-width="2"/>
<path d="M -82 -22 Q -40 -36 10 -34 Q 55 -32 85 -18" stroke="url(#chashuFat)" stroke-width="7" fill="none" stroke-linecap="round"/>
<path d="M -78 28 Q -30 36 30 32 Q 60 30 82 24" stroke="url(#chashuFat)" stroke-width="5" fill="none" stroke-linecap="round" opacity="0.8"/>
<g stroke="#8a4a28" stroke-width="1.2" fill="none" opacity="0.55">
<path d="M -75 -5 Q -20 0 30 -3 T 80 -2"/>
<path d="M -75 12 Q -20 16 30 12 T 80 16"/>
</g>
<ellipse cx="-20" cy="-14" rx="34" ry="5" fill="#f0c08a" opacity="0.45"/>
</g>

<!-- SOFT-BOILED EGG HALVES (ajitama) -->
<!-- Egg half 1 -->
<g transform="translate(170,30) rotate(-8)">
<ellipse cx="0" cy="6" rx="78" ry="48" fill="#000" opacity="0.35" filter="url(#soft)"/>
<ellipse cx="0" cy="0" rx="76" ry="46" fill="url(#eggWhite)"/>
<!-- soy tint on edge -->
<ellipse cx="0" cy="0" rx="76" ry="46" fill="none" stroke="#a87038" stroke-width="3" opacity="0.7"/>
<ellipse cx="0" cy="0" rx="76" ry="46" fill="none" stroke="#6a3a18" stroke-width="1.2" opacity="0.7"/>
<!-- Yolk -->
<ellipse cx="-4" cy="-2" rx="38" ry="26" fill="url(#yolk)"/>
<ellipse cx="-12" cy="-8" rx="20" ry="10" fill="#ffe89c" opacity="0.75"/>
<ellipse cx="-16" cy="-10" rx="8" ry="4" fill="#fff6c8" opacity="0.9"/>
<!-- yolk glisten -->
<ellipse cx="14" cy="8" rx="10" ry="3" fill="#fff0a0" opacity="0.5"/>
<!-- white highlight -->
<ellipse cx="-40" cy="-22" rx="22" ry="6" fill="#ffffff" opacity="0.5"/>
</g>

<!-- Egg half 2 (smaller, further back) -->
<g transform="translate(-30,-60) rotate(20)">
<ellipse cx="0" cy="6" rx="60" ry="36" fill="#000" opacity="0.3" filter="url(#soft)"/>
<ellipse cx="0" cy="0" rx="58" ry="34" fill="url(#eggWhite)"/>
<ellipse cx="0" cy="0" rx="58" ry="34" fill="none" stroke="#a87038" stroke-width="2.5" opacity="0.7"/>
<ellipse cx="-2" cy="-1" rx="28" ry="18" fill="url(#yolk)"/>
<ellipse cx="-8" cy="-6" rx="14" ry="7" fill="#ffe89c" opacity="0.75"/>
<ellipse cx="-11" cy="-7" rx="5" ry="2.5" fill="#fff6c8"/>
<ellipse cx="-30" cy="-18" rx="16" ry="4" fill="#ffffff" opacity="0.45"/>
</g>

<!-- NORI sheet (standing up at back-left) -->
<g transform="translate(-140,-80) rotate(-18) skewX(-6)">
<path d="M -80 -85 L 70 -90 L 75 35 L -85 30 Z" fill="url(#noriGrad)"/>
<path d="M -80 -85 L 70 -90 L 75 35 L -85 30 Z" fill="none" stroke="#0a1004" stroke-width="2"/>
<!-- subtle texture lines -->
<g stroke="#3a4a20" stroke-width="0.5" opacity="0.6" fill="none">
<line x1="-75" y1="-70" x2="65" y2="-75"/>
<line x1="-75" y1="-50" x2="65" y2="-55"/>
<line x1="-78" y1="-30" x2="68" y2="-35"/>
<line x1="-78" y1="-10" x2="70" y2="-15"/>
<line x1="-80" y1="10" x2="72" y2="5"/>
</g>
<!-- highlight sheen -->
<path d="M -60 -75 L 50 -80 L 55 -40 L -55 -35 Z" fill="#5a6a30" opacity="0.15"/>
<!-- corner notch / texture spots -->
<g fill="#2a3818" opacity="0.7">
<circle cx="-30" cy="-50" r="1.5"/>
<circle cx="20" cy="-20" r="1.2"/>
<circle cx="-10" cy="0" r="1"/>
<circle cx="40" cy="-60" r="1.3"/>
<circle cx="-50" cy="-20" r="1.1"/>
</g>
</g>

<!-- GREEN ONIONS scattered -->
<g>
<g fill="#7ec43a" stroke="#3a6a18" stroke-width="0.6">
<ellipse cx="20" cy="40" rx="6" ry="3" transform="rotate(20 20 40)"/>
<ellipse cx="60" cy="20" rx="5" ry="2.5" transform="rotate(-15 60 20)"/>
<ellipse cx="-50" cy="55" rx="6" ry="3" transform="rotate(40 -50 55)"/>
<ellipse cx="-90" cy="-20" rx="5" ry="2.5" transform="rotate(-30 -90 -20)"/>
<ellipse cx="100" cy="50" rx="5" ry="2.5" transform="rotate(60 100 50)"/>
<ellipse cx="-180" cy="60" rx="6" ry="3" transform="rotate(10 -180 60)"/>
<ellipse cx="220" cy="-20" rx="5" ry="2.5" transform="rotate(-50 220 -20)"/>
<ellipse cx="-130" cy="-30" rx="5" ry="2.5" transform="rotate(70 -130 -30)"/>
<ellipse cx="240" cy="40" rx="6" ry="3" transform="rotate(35 240 40)"/>
<ellipse cx="-220" cy="0" rx="5" ry="2.5" transform="rotate(-25 -220 0)"/>
<ellipse cx="150" cy="-50" rx="4" ry="2" transform="rotate(15 150 -50)"/>
<ellipse cx="-60" cy="-50" rx="5" ry="2.5" transform="rotate(80 -60 -50)"/>
<ellipse cx="40" cy="-10" rx="4" ry="2" transform="rotate(-10 40 -10)"/>
<ellipse cx="-10" cy="65" rx="5" ry="2.5" transform="rotate(50 -10 65)"/>
<ellipse cx="200" cy="55" rx="4" ry="2" transform="rotate(20 200 55)"/>
<ellipse cx="-200" cy="35" rx="4" ry="2" transform="rotate(-60 -200 35)"/>
<ellipse cx="130" cy="35" rx="5" ry="2.5" transform="rotate(45 130 35)"/>
<ellipse cx="-100" cy="55" rx="4" ry="2" transform="rotate(0 -100 55)"/>
</g>
<!-- white centers (cross-section of scallion) -->
<g fill="#e8f5d0" opacity="0.85">
<circle cx="20" cy="40" r="1.5"/>
<circle cx="60" cy="20" r="1.2"/>
<circle cx="-50" cy="55" r="1.5"/>
<circle cx="-90" cy="-20" r="1.2"/>
<circle cx="100" cy="50" r="1.2"/>
<circle cx="-180" cy="60" r="1.4"/>
<circle cx="220" cy="-20" r="1.2"/>
<circle cx="-130" cy="-30" r="1.2"/>
<circle cx="240" cy="40" r="1.4"/>
<circle cx="-220" cy="0" r="1.2"/>
<circle cx="-60" cy="-50" r="1.2"/>
<circle cx="-10" cy="65" r="1.2"/>
</g>
</g>

<!-- Sesame seeds -->
<g fill="#f8e8b0" opacity="0.9">
<ellipse cx="50" cy="50" rx="2" ry="1.3"/>
<ellipse cx="-30" cy="25" rx="2" ry="1.3"/>
<ellipse cx="120" cy="10" rx="2" ry="1.3"/>
<ellipse cx="-110" cy="50" rx="2" ry="1.3"/>
<ellipse cx="190" cy="30" rx="2" ry="1.3"/>
<ellipse cx="-70" cy="60" rx="2" ry="1.3"/>
<ellipse cx="0" cy="50" rx="2" ry="1.3"/>
<ellipse cx="80" cy="-25" rx="2" ry="1.3"/>
</g>

<!-- Bamboo shoots (menma) -->
<g transform="translate(-200,-40) rotate(-30)">
<rect x="-22" y="-5" width="44" height="10" rx="2" fill="#d6b070" stroke="#7a4a20" stroke-width="1"/>
<line x1="-22" y1="-2" x2="22" y2="-2" stroke="#a07840" stroke-width="0.8"/>
<line x1="-22" y1="2" x2="22" y2="2" stroke="#a07840" stroke-width="0.8"/>
</g>
<g transform="translate(-180,-30) rotate(-20)">
<rect x="-18" y="-4" width="36" height="8" rx="2" fill="#c8a060" stroke="#7a4a20" stroke-width="0.8"/>
<line x1="-18" y1="0" x2="18" y2="0" stroke="#a07840" stroke-width="0.6"/>
</g>

</g>

<!-- CHOPSTICKS resting across the bowl (front-right) -->
<g transform="translate(512,640)">
<!-- Shadow on broth/bowl -->
<g opacity="0.45" filter="url(#soft)">
<path d="M 80 -50 L 360 -180 L 380 -170 L 100 -38 Z" fill="#000"/>
<path d="M 100 -28 L 380 -158 L 400 -148 L 120 -16 Z" fill="#000"/>
</g>
<!-- back chopstick -->
<g transform="rotate(-22)">
<path d="M -150 -88 L 280 -88 L 285 -82 L -150 -82 Z" fill="url(#chopstick)"/>
<path d="M -150 -88 L 280 -88 L 285 -82 L -150 -82 Z" fill="none" stroke="#1a0804" stroke-width="0.8"/>
<rect x="240" y="-90" width="44" height="9" fill="#1a0804"/>
<rect x="260" y="-90" width="6" height="9" fill="#c83828"/>
<!-- tip taper -->
<path d="M -150 -88 L -180 -86 L -180 -84 L -150 -82 Z" fill="#3a1d0c"/>
<!-- highlight -->
<line x1="-140" y1="-87" x2="270" y2="-87" stroke="#a06a40" stroke-width="0.6" opacity="0.7"/>
</g>
<!-- front chopstick -->
<g transform="rotate(-26)">
<path d="M -130 -50 L 300 -50 L 305 -44 L -130 -44 Z" fill="url(#chopstick)"/>
<path d="M -130 -50 L 300 -50 L 305 -44 L -130 -44 Z" fill="none" stroke="#1a0804" stroke-width="0.8"/>
<rect x="260" y="-52" width="44" height="9" fill="#1a0804"/>
<rect x="280" y="-52" width="6" height="9" fill="#c83828"/>
<path d="M -130 -50 L -162 -48 L -162 -46 L -130 -44 Z" fill="#3a1d0c"/>
<line x1="-120" y1="-49" x2="290" y2="-49" stroke="#a06a40" stroke-width="0.6" opacity="0.7"/>
</g>
</g>

<!-- A single noodle being lifted by chopsticks -->
<g transform="translate(512,640)" stroke="#e8c060" stroke-width="3" fill="none" stroke-linecap="round" opacity="0.95">
<path d="M 230 -130 Q 220 -90 200 -60 Q 180 -30 150 -10"/>
<path d="M 240 -135 Q 235 -100 215 -70 Q 195 -40 165 -5"/>
</g>

<!-- STEAM (wisps rising) - drawn after bowl, in front -->
<g filter="url(#blurSteam)" opacity="0.85">
<path d="M 380 540 Q 360 460 400 380 Q 440 300 410 220 Q 380 160 420 100" stroke="url(#steam)" stroke-width="40" fill="none" stroke-linecap="round"/>
<path d="M 520 530 Q 540 440 510 360 Q 480 280 530 200 Q 560 140 530 80" stroke="url(#steam)" stroke-width="50" fill="none" stroke-linecap="round"/>
<path d="M 640 540 Q 660 460 630 380 Q 600 300 650 220 Q 680 160 660 90" stroke="url(#steam)" stroke-width="45" fill="none" stroke-linecap="round"/>
<path d="M 460 530 Q 480 470 450 410 Q 420 350 460 290" stroke="url(#steam)" stroke-width="30" fill="none" stroke-linecap="round"/>
<path d="M 580 530 Q 560 470 590 410 Q 620 350 580 290" stroke="url(#steam)" stroke-width="30" fill="none" stroke-linecap="round"/>
</g>
<g opacity="0.5">
<path d="M 420 520 Q 410 460 440 400 Q 470 340 440 280 Q 420 220 450 160" stroke="#fff" stroke-width="3" fill="none" stroke-linecap="round" opacity="0.4"/>
<path d="M 540 510 Q 560 440 530 370 Q 500 300 540 230 Q 560 180 540 120" stroke="#fff" stroke-width="3" fill="none" stroke-linecap="round" opacity="0.45"/>
<path d="M 610 520 Q 600 450 630 380 Q 660 310 620 240" stroke="#fff" stroke-width="2.5" fill="none" stroke-linecap="round" opacity="0.4"/>
</g>

<!-- Floating spice dust / sparkle particles -->
<g fill="#fff" opacity="0.7">
<circle cx="380" cy="380" r="1.5"/>
<circle cx="520" cy="320" r="1.2"/>
<circle cx="610" cy="360" r="1.3"/>
<circle cx="450" cy="280" r="1"/>
<circle cx="560" cy="240" r="1.1"/>
<circle cx="470" cy="200" r="0.9"/>
<circle cx="600" cy="200" r="1.2"/>
</g>

<!-- Subtle vignette -->
<radialGradient id="vignette" cx="0.5" cy="0.5" r="0.7">
<stop offset="60%" stop-color="#000" stop-opacity="0"/>
<stop offset="100%" stop-color="#000" stop-opacity="0.55"/>
</radialGradient>
<rect width="1024" height="1024" fill="url(#vignette)"/>

</svg>
